<?xml version="1.0" standalone="no"?>
<svg xmlns:xlink="http://www.w3.org/1999/xlink" id="wave" style="transform:rotate(180deg); transition: 0.3s" viewBox="0 0 1440 100" version="1.1" xmlns="http://www.w3.org/2000/svg"><defs><linearGradient id="sw-gradient-0" x1="0" x2="0" y1="1" y2="0"><stop stop-color="rgba(255, 249, 234, 1)" offset="0%"/><stop stop-color="rgba(255, 249, 234, 1)" offset="100%"/></linearGradient></defs><path style="transform:translate(0, 0px); opacity:1" fill="url(#sw-gradient-0)" d="M0,50L48,46.7C96,43,192,37,288,41.7C384,47,480,63,576,65C672,67,768,53,864,55C960,57,1056,73,1152,75C1248,77,1344,63,1440,51.7C1536,40,1632,30,1728,28.3C1824,27,1920,33,2016,31.7C2112,30,2208,20,2304,21.7C2400,23,2496,37,2592,48.3C2688,60,2784,70,2880,76.7C2976,83,3072,87,3168,83.3C3264,80,3360,70,3456,58.3C3552,47,3648,33,3744,25C3840,17,3936,13,4032,13.3C4128,13,4224,17,4320,26.7C4416,37,4512,53,4608,60C4704,67,4800,63,4896,66.7C4992,70,5088,80,5184,81.7C5280,83,5376,77,5472,66.7C5568,57,5664,43,5760,38.3C5856,33,5952,37,6048,43.3C6144,50,6240,60,6336,53.3C6432,47,6528,23,6624,18.3C6720,13,6816,27,6864,33.3L6912,40L6912,100L6864,100C6816,100,6720,100,6624,100C6528,100,6432,100,6336,100C6240,100,6144,100,6048,100C5952,100,5856,100,5760,100C5664,100,5568,100,5472,100C5376,100,5280,100,5184,100C5088,100,4992,100,4896,100C4800,100,4704,100,4608,100C4512,100,4416,100,4320,100C4224,100,4128,100,4032,100C3936,100,3840,100,3744,100C3648,100,3552,100,3456,100C3360,100,3264,100,3168,100C3072,100,2976,100,2880,100C2784,100,2688,100,2592,100C2496,100,2400,100,2304,100C2208,100,2112,100,2016,100C1920,100,1824,100,1728,100C1632,100,1536,100,1440,100C1344,100,1248,100,1152,100C1056,100,960,100,864,100C768,100,672,100,576,100C480,100,384,100,288,100C192,100,96,100,48,100L0,100Z"/></svg>